<svg width="105" height="32" viewBox="0 0 105 32" fill="none" xmlns="http://www.w3.org/2000/svg">
<path d="M100.85 30.6399H4.46392C2.5106 30.6399 0.927734 29.0662 0.927734 27.1242V4.42227C0.927734 2.48022 2.5106 0.906494 4.46392 0.906494H100.85C102.803 0.906494 104.386 2.48022 104.386 4.42227V27.1242C104.386 29.0662 102.803 30.6399 100.85 30.6399Z" fill="black"/>
<mask id="mask0_474_6205" style="mask-type:luminance" maskUnits="userSpaceOnUse" x="0" y="0" width="105" height="32">
<path d="M0.541016 0.523193H104.771V31.4769H0.541016V0.523193Z" fill="white"/>
</mask>
<g mask="url(#mask0_474_6205)">
<path d="M4.46263 1.29136C2.72634 1.29136 1.31374 2.69581 1.31374 4.42208V27.124C1.31374 28.8502 2.72634 30.2547 4.46263 30.2547H100.851C102.587 30.2547 104 28.8502 104 27.124V4.42208C104 2.69581 102.587 1.29136 100.851 1.29136H4.46263ZM100.851 31.0248H4.46263C2.29975 31.0248 0.541016 29.2744 0.541016 27.124V4.42208C0.541016 2.27169 2.29975 0.52124 4.46263 0.52124H100.851C103.014 0.52124 104.772 2.27169 104.772 4.42208V27.124C104.772 29.2744 103.014 31.0248 100.851 31.0248Z" fill="#A7A9AB"/>
</g>
<path d="M36.6845 8.50552L36.2878 7.27035C36.1906 6.96528 36.1082 6.62486 36.0334 6.33467H36.0184C35.9455 6.62486 35.8687 6.97272 35.7808 7.27035L35.3916 8.50552H36.6845ZM35.242 9.19566L34.8079 10.6168H33.8574L35.474 5.60547H36.6471L38.2842 10.6168H37.2982L36.8417 9.19566" fill="white"/>
<path d="M39.6594 6.99658L40.2507 8.83074C40.3554 9.15069 40.4284 9.44089 40.4958 9.73852H40.5182C40.5856 9.44089 40.6679 9.15813 40.7652 8.83074L41.3489 6.99658H42.3125L40.9224 10.6165H40.0187L38.6641 6.99658" fill="white"/>
<path d="M45.0878 8.84568C44.4366 8.83824 43.8155 8.97218 43.8155 9.5228C43.8155 9.87995 44.0475 10.0437 44.3394 10.0437C44.7117 10.0437 44.9755 9.80555 45.0634 9.54512C45.0878 9.47815 45.0878 9.41118 45.0878 9.34422V8.84568ZM45.984 9.74602C45.984 10.0734 45.9989 10.3934 46.0438 10.6147H45.2131L45.1476 10.2148H45.1233C44.9081 10.4957 44.5265 10.6966 44.0475 10.6966C43.314 10.6966 42.9043 10.1701 42.9043 9.61953C42.9043 8.71175 43.7182 8.24484 45.0634 8.25228V8.19275C45.0634 7.95465 44.968 7.56028 44.3244 7.56028C43.9652 7.56028 43.591 7.6719 43.344 7.82815L43.1644 7.23289C43.4338 7.06919 43.9053 6.91479 44.4815 6.91479C45.6472 6.91479 45.984 7.64957 45.984 8.44574" fill="white"/>
<path d="M47.2848 6.99657H48.2035V10.6165H47.2848V6.99657ZM47.7395 6.47571C47.4345 6.47571 47.2324 6.25249 47.2324 5.98462C47.2324 5.70187 47.4401 5.48608 47.7488 5.48608C48.0613 5.48608 48.2559 5.70187 48.2633 5.98462C48.2633 6.25249 48.0613 6.47571 47.7488 6.47571" fill="white"/>
<path d="M49.5254 10.6168H50.4459V5.33008H49.5254V10.6168Z" fill="white"/>
<path d="M53.7049 8.84568C53.0538 8.83824 52.4327 8.97218 52.4327 9.5228C52.4327 9.87995 52.6647 10.0437 52.9565 10.0437C53.3307 10.0437 53.5927 9.80555 53.6825 9.54512C53.7049 9.47815 53.7049 9.41118 53.7049 9.34422V8.84568ZM54.6011 9.74602C54.6011 10.0734 54.6161 10.3934 54.661 10.6147H53.8322L53.7648 10.2148H53.7424C53.5253 10.4957 53.1436 10.6966 52.6647 10.6966C51.9331 10.6966 51.5215 10.1701 51.5215 9.61953C51.5215 8.71175 52.3372 8.24484 53.6825 8.25228V8.19275C53.6825 7.95465 53.5852 7.56028 52.9416 7.56028C52.5823 7.56028 52.2081 7.6719 51.963 7.82815L51.7834 7.23289C52.0528 7.06919 52.5225 6.91479 53.0987 6.91479C54.2644 6.91479 54.6011 7.64957 54.6011 8.44574" fill="white"/>
<path d="M56.8216 9.12117C56.8216 9.19557 56.829 9.26998 56.844 9.33695C56.9413 9.70899 57.2631 9.97686 57.6579 9.97686C58.2342 9.97686 58.5859 9.52297 58.5859 8.78819C58.5859 8.14828 58.2791 7.62743 57.6654 7.62743C57.2912 7.62743 56.9488 7.89529 56.8515 8.2971C56.8365 8.36407 56.8216 8.44591 56.8216 8.5352V9.12117ZM55.901 5.33008H56.8216V7.49349H56.8365C57.061 7.14377 57.4558 6.91497 58.0022 6.91497C58.8928 6.91497 59.527 7.64975 59.5195 8.75099C59.5195 10.0513 58.6907 10.6986 57.8674 10.6986C57.396 10.6986 56.9787 10.52 56.7168 10.0736H56.7018L56.6569 10.6168H55.8711C55.8861 10.3712 55.901 9.96942 55.901 9.60482" fill="white"/>
<path d="M60.6035 10.6168H61.5222V5.33008H60.6035V10.6168Z" fill="white"/>
<path d="M65.1039 8.42342C65.1114 8.08858 64.9617 7.53796 64.3499 7.53796C63.7811 7.53796 63.5416 8.05138 63.5042 8.42342H65.1039ZM63.5042 9.06147C63.5267 9.71626 64.0431 9.99901 64.6268 9.99901C65.0515 9.99901 65.3509 9.93204 65.6353 9.83531L65.77 10.4585C65.4557 10.5943 65.0216 10.6891 64.4996 10.6891C63.3171 10.6891 62.6211 9.96924 62.6211 8.86243C62.6211 7.85792 63.2348 6.91479 64.4023 6.91479C65.5829 6.91479 65.972 7.88024 65.972 8.67641C65.972 8.84754 65.9571 8.98148 65.9421 9.06147" fill="white"/>
<path d="M70.5378 10.0362C71.0598 10.0362 71.4265 9.53024 71.4265 8.79546C71.4265 8.22996 71.172 7.57517 70.5452 7.57517C69.8941 7.57517 69.6322 8.20763 69.6322 8.81034C69.6322 9.50791 69.9839 10.0362 70.5284 10.0362H70.5378ZM70.5078 10.6984C69.4825 10.6984 68.6836 9.99901 68.6836 8.83266C68.6836 7.64213 69.4675 6.91479 70.5677 6.91479C71.651 6.91479 72.3769 7.6719 72.3769 8.77314C72.3769 10.1032 71.434 10.6984 70.5153 10.6984" fill="white"/>
<path d="M73.4597 8.0737C73.4597 7.65701 73.4466 7.3073 73.4316 6.99478H74.2306L74.2755 7.53796H74.2979C74.4626 7.25521 74.8592 6.91479 75.4654 6.91479C76.0997 6.91479 76.7583 7.32218 76.7583 8.46806V10.6147H75.8377V8.57223C75.8377 8.05138 75.6432 7.65701 75.1436 7.65701C74.7769 7.65701 74.5224 7.91744 74.4251 8.19275C74.3952 8.26716 74.3802 8.37877 74.3802 8.48294V10.6147H73.4597" fill="white"/>
<path d="M80.9962 6.06665V6.99489H81.8699V7.67944H80.9962V9.26992C80.9962 9.71636 81.1159 9.93959 81.4658 9.93959C81.6304 9.93959 81.7203 9.93215 81.825 9.90238L81.84 10.5925C81.7053 10.6465 81.4583 10.6892 81.1739 10.6892C80.8315 10.6892 80.5546 10.5776 80.3825 10.3935C80.1804 10.1851 80.0906 9.8503 80.0906 9.37409V7.67944H79.5742V6.99489H80.0906V6.31964" fill="white"/>
<path d="M82.8926 5.33008H83.8131V7.48605H83.8281C83.9403 7.31491 84.0975 7.17354 84.2846 7.07681C84.4717 6.9745 84.6869 6.91497 84.9189 6.91497C85.54 6.91497 86.1893 7.32235 86.1893 8.48312V10.6168H85.2706V8.57985C85.2706 8.05899 85.076 7.65719 84.5671 7.65719C84.2098 7.65719 83.9553 7.89529 83.8505 8.1706C83.8206 8.25245 83.8131 8.34918 83.8131 8.44591V10.6168H82.8926" fill="white"/>
<path d="M89.7484 8.42342C89.7559 8.08858 89.6062 7.53796 88.9926 7.53796C88.4238 7.53796 88.1862 8.05138 88.1487 8.42342H89.7484ZM88.1487 9.06147C88.1712 9.71626 88.6857 9.99901 89.2695 9.99901C89.696 9.99901 89.9954 9.93204 90.2779 9.83531L90.4145 10.4585C90.1002 10.5943 89.6661 10.6891 89.1422 10.6891C87.9616 10.6891 87.2656 9.96924 87.2656 8.86243C87.2656 7.85792 87.8793 6.91479 89.0449 6.91479C90.2255 6.91479 90.6147 7.88024 90.6147 8.67641C90.6147 8.84754 90.5997 8.98148 90.5848 9.06147" fill="white"/>
<path d="M23.8026 15.4755C23.7783 12.9958 25.8439 11.7886 25.9393 11.7328C24.7699 10.0363 22.957 9.8056 22.3189 9.787C20.7978 9.62888 19.3216 10.6948 18.547 10.6948C17.7556 10.6948 16.56 9.80374 15.2746 9.82978C13.6169 9.85582 12.0677 10.8101 11.2183 12.289C9.46706 15.3081 10.773 19.7428 12.4532 22.1834C13.2951 23.3776 14.2755 24.7132 15.5609 24.6649C16.8182 24.6128 17.2878 23.8687 18.8052 23.8687C20.3095 23.8687 20.751 24.6649 22.0626 24.6351C23.4116 24.6128 24.261 23.4353 25.0712 22.228C26.0441 20.8589 26.4333 19.5103 26.4482 19.4414C26.4164 19.4303 23.8288 18.4481 23.8026 15.4755Z" fill="white"/>
<path d="M21.3263 8.18359C22.0017 7.34278 22.4676 6.1969 22.3366 5.03613C21.3581 5.08078 20.1344 5.70953 19.4291 6.53173C18.806 7.25721 18.2466 8.44588 18.3926 9.562C19.4927 9.64385 20.6209 9.01138 21.3263 8.18359Z" fill="white"/>
<path d="M38.9778 20.2098L38.1097 17.5441C38.018 17.2726 37.8458 16.6308 37.5914 15.6226H37.5615C37.4604 16.056 37.2958 16.6978 37.0731 17.5441L36.2199 20.2098H38.9778ZM41.9789 24.4678H40.2258L39.2659 21.4692H35.9318L35.0169 24.4678H33.3105L36.6185 14.259H38.6579" fill="white"/>
<path d="M48.8036 20.7566C48.8036 20.0386 48.6408 19.4489 48.3152 18.9838C47.9597 18.5002 47.4826 18.2565 46.8839 18.2565C46.4779 18.2565 46.1075 18.3923 45.78 18.6583C45.4507 18.928 45.2337 19.2777 45.1308 19.713C45.0803 19.9139 45.056 20.0795 45.056 20.2097V21.4374C45.056 21.9732 45.2206 22.4252 45.5499 22.7935C45.8811 23.1637 46.3095 23.346 46.8371 23.346C47.4583 23.346 47.941 23.1098 48.2834 22.6335C48.6314 22.1592 48.8036 21.5342 48.8036 20.7566ZM50.48 20.6952C50.48 21.9471 50.1395 22.9386 49.4584 23.6641C48.8485 24.3114 48.0907 24.6333 47.1889 24.6333C46.2122 24.6333 45.5125 24.2835 45.0859 23.5878H45.056V27.4663H43.4095V19.5289C43.4095 18.742 43.3908 17.9347 43.3496 17.105H44.7959L44.8876 18.2732H44.9194C45.4676 17.3934 46.3002 16.9543 47.4172 16.9543C48.289 16.9543 49.0206 17.2985 49.6025 17.9849C50.1862 18.6732 50.48 19.5754 50.48 20.6952Z" fill="white"/>
<path d="M57.3173 20.7566C57.3173 20.0386 57.1545 19.4489 56.829 18.9838C56.4735 18.5002 55.9964 18.2565 55.3977 18.2565C54.9917 18.2565 54.6231 18.3923 54.2938 18.6583C53.9626 18.928 53.7493 19.2777 53.6483 19.713C53.5959 19.9139 53.5716 20.0795 53.5716 20.2097V21.4374C53.5716 21.9732 53.7344 22.4252 54.0637 22.7935C54.3948 23.1637 54.8233 23.346 55.3528 23.346C55.9721 23.346 56.4548 23.1098 56.7991 22.6335C57.1433 22.1592 57.3173 21.5342 57.3173 20.7566ZM58.9919 20.6952C58.9919 21.9471 58.6532 22.9386 57.9722 23.6641C57.3622 24.3114 56.6063 24.6333 55.7027 24.6333C54.7279 24.6333 54.0281 24.2835 53.5996 23.5878H53.5716V27.4663H51.9251V19.5289C51.9251 18.742 51.9045 17.9347 51.8652 17.105H53.3115L53.4032 18.2732H53.435C53.9813 17.3934 54.8139 16.9543 55.9309 16.9543C56.8047 16.9543 57.5325 17.2985 58.1181 17.9849C58.7019 18.6732 58.9919 19.5754 58.9919 20.6952Z" fill="white"/>
<path d="M68.5171 21.6049C68.5171 22.4718 68.214 23.1786 67.6041 23.7255C66.9343 24.3208 66.0044 24.6184 64.8088 24.6184C63.7031 24.6184 62.8162 24.4064 62.1445 23.9823L62.5262 22.6206C63.2503 23.054 64.0417 23.2698 64.9061 23.2698C65.5254 23.2698 66.0081 23.1321 66.3543 22.855C66.6985 22.5759 66.8707 22.2039 66.8707 21.7388C66.8707 21.3259 66.7303 20.9743 66.446 20.6916C66.1616 20.4088 65.6882 20.1465 65.0277 19.9028C63.2297 19.235 62.3316 18.2584 62.3316 16.9749C62.3316 16.1359 62.646 15.4477 63.2765 14.9119C63.9051 14.3762 64.7433 14.1064 65.7892 14.1064C66.7247 14.1064 67.5012 14.2701 68.1205 14.592L67.7089 15.9257C67.1307 15.6132 66.4759 15.4551 65.7443 15.4551C65.1643 15.4551 64.7134 15.5965 64.3897 15.8792C64.1166 16.1322 63.9781 16.441 63.9781 16.8037C63.9781 17.2074 64.1334 17.5404 64.4496 17.8027C64.7228 18.0445 65.2204 18.3068 65.9427 18.5914C66.8258 18.9448 67.475 19.3578 67.8922 19.8321C68.3076 20.3065 68.5171 20.898 68.5171 21.6049Z" fill="white"/>
<path d="M73.9525 18.3327H72.1395V21.9062C72.1395 22.8158 72.4594 23.2697 73.1012 23.2697C73.393 23.2697 73.6381 23.2455 73.8308 23.1953L73.8758 24.4361C73.5539 24.5588 73.1255 24.6184 72.5979 24.6184C71.9486 24.6184 71.4397 24.4212 71.073 24.0287C70.7082 23.6343 70.5248 22.9721 70.5248 22.0438V18.3327H69.4434V17.105H70.5248V15.7582L72.1395 15.2727V17.105H73.9525" fill="white"/>
<path d="M80.4285 20.7789C80.4285 20.0999 80.2807 19.5196 79.9851 19.0322C79.6427 18.4444 79.1488 18.1505 78.5089 18.1505C77.8484 18.1505 77.3451 18.4444 77.0009 19.0322C76.7052 19.5196 76.5612 20.1111 76.5612 20.8105C76.5612 21.4895 76.7052 22.0699 77.0009 22.5554C77.3564 23.1432 77.854 23.4371 78.4958 23.4371C79.1226 23.4371 79.6165 23.1395 79.972 22.5405C80.277 22.0457 80.4285 21.4579 80.4285 20.7789ZM82.1349 20.7268C82.1349 21.8578 81.8112 22.7861 81.1601 23.5134C80.479 24.2612 79.5754 24.6333 78.449 24.6333C77.3601 24.6333 76.4957 24.2742 75.8502 23.5581C75.2066 22.8419 74.8848 21.9378 74.8848 20.8477C74.8848 19.7056 75.2159 18.7718 75.882 18.0463C76.5462 17.3171 77.4424 16.9543 78.5688 16.9543C79.6558 16.9543 80.5314 17.3134 81.19 18.0295C81.8206 18.729 82.1349 19.6256 82.1349 20.7268Z" fill="white"/>
<path d="M87.4824 18.5448C87.3196 18.5151 87.1475 18.5002 86.9641 18.5002C86.386 18.5002 85.9369 18.7178 85.6226 19.1512C85.3494 19.5363 85.2129 20.02 85.2129 20.6041V24.4677H83.5683L83.5814 19.4247C83.5814 18.5746 83.5608 17.8026 83.5215 17.105H84.9547L85.0145 18.5151H85.0576C85.2316 18.0314 85.5066 17.6408 85.8808 17.3487C86.2475 17.0864 86.6442 16.9543 87.0708 16.9543C87.2223 16.9543 87.3608 16.9655 87.4824 16.9841" fill="white"/>
<path d="M93.2703 20.0144C93.2815 19.5307 93.1749 19.1103 92.9522 18.7569C92.6678 18.303 92.2282 18.0742 91.6407 18.0742C91.1037 18.0742 90.6659 18.2974 90.331 18.742C90.0578 19.0954 89.8931 19.5196 89.8464 20.0144H93.2703ZM94.8382 20.4385C94.8382 20.7324 94.8195 20.9779 94.7802 21.1807H89.8464C89.8632 21.908 90.1027 22.4642 90.5611 22.8474C90.9765 23.1916 91.5153 23.3609 92.1758 23.3609C92.9055 23.3609 93.5715 23.2455 94.1721 23.013L94.4303 24.1496C93.7287 24.4509 92.9017 24.6053 91.9456 24.6053C90.7987 24.6053 89.8969 24.2686 89.242 23.5953C88.5891 22.9256 88.2598 22.0234 88.2598 20.8924C88.2598 19.7818 88.5629 18.8573 89.1747 18.1207C89.8127 17.332 90.6771 16.9395 91.7623 16.9395C92.8287 16.9395 93.6389 17.332 94.1871 18.1207C94.623 18.7457 94.8382 19.5196 94.8382 20.4385Z" fill="white"/>
</svg>
