<svg width="164" height="160" viewBox="0 0 164 160" fill="none" xmlns="http://www.w3.org/2000/svg">
<path d="M157.5 10.6338C156.218 8.92509 153.5 6.36042 150.873 4.95684C143.644 1.09356 136.857 -0.295884 128.784 1.39434C119.262 4.41121 113.5 10.6338 108.46 19.5972L104.759 26.3536L101.797 31.6825L93.4123 46.3492C93.3972 46.3755 93.383 46.4002 93.3676 46.4264C93.1263 46.8375 90.9696 50.5127 89.8629 52.4058L88.1396 55.3581L88.1389 55.3592L87.9715 55.646C84.8655 60.9658 88.7038 67.6338 94.8639 67.6338H104H115.5H126H131H140.47C143.281 67.6338 145.885 66.1594 147.33 63.7498L148 62.6338L150.5 58.1338L154 52.1338L157.431 46.2517C157.477 46.1731 157.519 46.0979 157.562 46.0176C158.036 45.129 161.079 39.3583 162 36.1338C164.444 27.5792 162.375 17.1338 157.5 10.6338Z" fill="#F05A25"/>
<path d="M86.3577 149.857C88.458 149.636 91.9953 148.639 94.4826 147.138C101.329 143.006 105.818 138.01 108.263 130.394C110.261 120.9 107.662 112.957 102.34 104.248L88.2349 79.7274C85.1622 74.3856 77.4577 74.3776 74.374 79.713L52.1922 118.091C50.7278 120.624 50.7629 123.754 52.2832 126.254C53.9393 128.978 55.9636 132.311 56.7881 133.686C58.1082 135.886 61.2153 139.786 61.9415 140.69C62.0446 140.818 62.1427 140.948 62.2403 141.081C67.5193 148.246 78.4414 150.687 86.3577 149.857Z" fill="#FBBC10"/>
<path d="M43.4024 5.00915C47.0602 7.69601 49.4062 10.1901 50.8037 14.4549C50.9619 14.9376 51.0552 15.44 51.0887 15.9468C51.2605 18.5446 51.1043 21.06 51.0288 23.6855C51.03 24.7596 51.0276 27.0789 51.0288 28.1855C51.0233 31.7146 51.0917 34.1571 51.0288 37.6855C51.0139 40.1403 51.0368 44.7307 51.0288 47.1855C50.9983 53.6306 51.1174 58.2411 51.0288 64.6855C50.9468 71.268 51.0691 77.6027 51.0288 84.1855C50.973 92.586 51.0619 100.897 51.0839 109.234C51.0941 113.117 46.0537 114.512 44.0345 111.195C44.0307 111.189 44.0311 111.189 44.0272 111.183C43.904 110.978 36.0981 97.9851 32.1524 91.3841C27.0531 82.8458 16.847 65.7195 16.5361 65.1977C16.5262 65.1813 16.5239 65.1773 16.5142 65.1607L8.0288 50.6855C2.45268 41.6486 -1.09759 33.473 0.307873 22.6879C0.366605 22.2372 0.471964 21.7913 0.620856 21.3619C3.21065 13.8925 7.76996 7.67773 14.6875 3.69274C24.4632 -0.753557 34.0788 -0.231822 43.4024 5.00915Z" fill="#B91F3F"/>
</svg>
